<svg xmlns="http://www.w3.org/2000/svg">
  <symbol id="ic-star" viewBox="0 0 16 16">
    <path d="M8.57622 1.99731C8.51762 1.89629 8.43351 1.81243 8.3323 1.75414C8.23109 1.69584 8.11635 1.66516 7.99956 1.66516C7.88276 1.66516 7.76802 1.69584 7.66682 1.75414C7.56561 1.81243 7.48149 1.89629 7.42289 1.99731L5.61356 5.11598C5.55089 5.22384 5.4648 5.31626 5.36165 5.38642C5.25849 5.45657 5.14091 5.50267 5.01756 5.52131L1.62622 6.03331C1.05689 6.11998 0.856891 6.83865 1.30089 7.20665L3.82689 9.29865C4.06022 9.49265 4.17022 9.79865 4.11356 10.0966L3.45289 13.5666C3.42943 13.6899 3.44121 13.8172 3.48689 13.9341C3.53257 14.0509 3.61029 14.1525 3.71112 14.2271C3.81194 14.3018 3.93179 14.3465 4.05687 14.3561C4.18195 14.3656 4.3072 14.3397 4.41822 14.2813L7.61156 12.6C7.7312 12.537 7.86437 12.5041 7.99956 12.5041C8.13475 12.5041 8.26791 12.537 8.38756 12.6L11.5809 14.2813C11.6919 14.3397 11.8172 14.3656 11.9422 14.3561C12.0673 14.3465 12.1872 14.3018 12.288 14.2271C12.3888 14.1525 12.4665 14.0509 12.5122 13.9341C12.5579 13.8172 12.5697 13.6899 12.5462 13.5666L11.8856 10.0966C11.8576 9.95015 11.8694 9.79882 11.9198 9.65846C11.9702 9.51809 12.0574 9.39383 12.1722 9.29865L14.6989 7.20598C15.1422 6.83931 14.9422 6.11931 14.3722 6.03331L10.9822 5.52131C10.8588 5.50276 10.741 5.45671 10.6378 5.38655C10.5345 5.31639 10.4483 5.22392 10.3856 5.11598L8.57622 1.99731Z" fill="#F5C518" />
  </symbol>
  <symbol id='ic-logo' viewBox="0 0 22 22">
    <path d="M15.95 8.07988C17.0833 8.73421 17.0833 10.37 15.95 11.0244L9.05 15.0081C7.91667 15.6624 6.5 14.8445 6.5 13.5358L6.5 5.56841C6.5 4.25975 7.91667 3.44183 9.05 4.09616L15.95 8.07988Z" fill="#E50914"/>
    <path d="M0 1.70193C0.000342254 0.39359 1.41663 -0.423884 2.5498 0.230253L7.12207 2.8699C6.26612 2.91131 5.50015 3.60604 5.5 4.56814V11.1697L2.5498 12.8738C1.41654 13.5281 0.000169211 12.7107 0 11.4021V1.70193Z" fill="white"/>
  </symbol>
  <symbol id="ic-not-found" viewBox="0 0 24 24">
    <path d="M7 10H10M10 10H13M10 10V7M10 10V13M15 15L21 21M10 17C9.08075 17 8.1705 16.8189 7.32122 16.4672C6.47194 16.1154 5.70026 15.5998 5.05025 14.9497C4.40024 14.2997 3.88463 13.5281 3.53284 12.6788C3.18106 11.8295 3 10.9193 3 10C3 9.08075 3.18106 8.1705 3.53284 7.32122C3.88463 6.47194 4.40024 5.70026 5.05025 5.05025C5.70026 4.40024 6.47194 3.88463 7.32122 3.53284C8.1705 3.18106 9.08075 3 10 3C11.8565 3 13.637 3.7375 14.9497 5.05025C16.2625 6.36301 17 8.14348 17 10C17 11.8565 16.2625 13.637 14.9497 14.9497C13.637 16.2625 11.8565 17 10 17Z" stroke="#606060" stroke-width="1.5" stroke-linecap="round" stroke-linejoin="round" />
  </symbol>
  <symbol id="ic-alert" viewBox="0 0 24 24">
    <path d="M12 22C17.5228 22 22 17.5228 22 12C22 6.47715 17.5228 2 12 2C6.47715 2 2 6.47715 2 12C2 17.5228 6.47715 22 12 22Z" stroke="#606060" stroke-width="1.5" />
    <path d="M12 7V13M12 16.5V17" stroke="#606060" stroke-width="1.5" stroke-linecap="round" />
  </symbol>
  <symbol id="ic-retry" fill="none" viewBox="0 0 24 24">
    <path d="M12.0002 3C14.1232 3.00003 16.1779 3.7506 17.8011 5.11905C19.4243 6.48749 20.5114 8.3857 20.8704 10.4782C21.2294 12.5707 20.8371 14.7227 19.7629 16.5539C18.6886 18.3851 17.0016 19.7776 14.9999 20.4853C12.9983 21.193 10.8109 21.1702 8.82443 20.4211C6.83792 19.672 5.18019 18.2448 4.14422 16.3916C3.10826 14.5385 2.76076 12.3788 3.16315 10.2942C3.56553 8.20964 4.6919 6.33442 6.34316 5" stroke="#606060" stroke-width="1.5" stroke-linecap="round" stroke-linejoin="round" />
    <path d="M3 4.5H7V8.5" stroke="#606060" stroke-width="1.5" stroke-linecap="round" stroke-linejoin="round" />
  </symbol>
  <symbol id="ic-search" viewBox="0 0 16 16">
    <path fill-rule="evenodd" clip-rule="evenodd" d="M10.7883 11.5845C9.77731 12.3923 8.49533 12.7824 7.20571 12.6745C5.91609 12.5667 4.71672 11.9691 3.85393 11.0045C2.99114 10.04 2.53042 8.78169 2.56641 7.48807C2.6024 6.19444 3.13236 4.9637 4.04745 4.04862C4.96253 3.13353 6.19327 2.60357 7.48689 2.56758C8.78052 2.53159 10.0388 2.99231 11.0034 3.8551C11.9679 4.71789 12.5655 5.91726 12.6733 7.20688C12.7812 8.4965 12.3912 9.77848 11.5833 10.7895L15.4503 14.6558C15.5056 14.7072 15.5499 14.7693 15.5807 14.8383C15.6114 14.9073 15.6279 14.9818 15.6293 15.0574C15.6306 15.1329 15.6167 15.2079 15.5884 15.2779C15.5601 15.348 15.518 15.4116 15.4646 15.465C15.4112 15.5184 15.3476 15.5606 15.2775 15.5888C15.2075 15.6171 15.1325 15.631 15.0569 15.6297C14.9814 15.6284 14.9069 15.6118 14.8379 15.5811C14.7689 15.5503 14.7068 15.506 14.6553 15.4508L10.7883 11.5845ZM4.84458 10.413C4.29411 9.86247 3.91919 9.16112 3.76721 8.39758C3.61523 7.63404 3.69301 6.84258 3.99071 6.12322C4.28842 5.40387 4.79269 4.78892 5.43979 4.35608C6.08689 3.92323 6.84779 3.69194 7.62631 3.69141C8.40483 3.69089 9.16603 3.92116 9.81372 4.35313C10.4614 4.7851 10.9665 5.39938 11.2652 6.11833C11.5638 6.83728 11.6427 7.62863 11.4917 8.39238C11.3408 9.15613 10.9668 9.85798 10.4171 10.4092L10.4133 10.413L10.4096 10.416C9.6709 11.153 8.6699 11.5666 7.62646 11.566C6.58302 11.5655 5.58246 11.1508 4.84458 10.413Z" fill="white" />
  </symbol>
  <symbol id="ic-cross" viewBox="0 0 16 16">
    <path d="M0.75 10.75L10.75 0.75M0.75 0.75L10.75 10.75" stroke="white" stroke-width="1.5" stroke-linecap="round" />
  </symbol>
</svg>